<svg height="512" viewBox="0 0 64 64" width="512" xmlns="http://www.w3.org/2000/svg"><g id="flat"><path d="m45 61h-26l-4-4v-50a4 4 0 0 1 4-4h26a4 4 0 0 1 4 4v50z" fill="#f98c96"/><path d="m15 49h34a0 0 0 0 1 0 0v8a4 4 0 0 1 -4 4h-26a4 4 0 0 1 -4-4v-8a0 0 0 0 1 0 0z" fill="#394d5c"/><path d="m27 3h10v4h-10z" fill="#394d5c"/><g fill="#ffd782"><path d="m21 19h8v8h-8z"/><path d="m21 31h8v8h-8z"/><path d="m35 31h8v8h-8z"/></g><path d="m33 15h12v12h-12z" fill="#5f79ba"/><path d="m37 15h4v6h-4z" fill="#ffd782"/><path d="m39 15-2.6-3.468a1.329 1.329 0 0 0 -1.065-.532h-.005a1.329 1.329 0 0 0 -1.33 1.33v2.67z" fill="#f9bb4b"/><path d="m39 15 2.6-3.468a1.329 1.329 0 0 1 1.065-.532h.005a1.329 1.329 0 0 1 1.33 1.33v2.67z" fill="#f9bb4b"/><circle cx="32" cy="55" fill="#aabece" r="2"/><g fill="#f4f4e6"><path d="m18 8h2v2h-2z"/><path d="m22 8h2v2h-2z"/></g></g></svg>