<?xml version="1.0" encoding="UTF-8" standalone="no"?>
<svg
   xmlns:dc="http://purl.org/dc/elements/1.1/"
   xmlns:cc="http://creativecommons.org/ns#"
   xmlns:rdf="http://www.w3.org/1999/02/22-rdf-syntax-ns#"
   xmlns:svg="http://www.w3.org/2000/svg"
   xmlns="http://www.w3.org/2000/svg"
   xmlns:sodipodi="http://sodipodi.sourceforge.net/DTD/sodipodi-0.dtd"
   xmlns:inkscape="http://www.inkscape.org/namespaces/inkscape"
   id="Layer_1_1_"
   enable-background="new 0 0 64 64"
   height="512"
   viewBox="0 0 64 64"
   width="512"
   version="1.1"
   sodipodi:docname="process_icon.svg"
   inkscape:version="1.0.1 (3bc2e813f5, 2020-09-07)">
  <metadata
     id="metadata17">
    <rdf:RDF>
      <cc:Work
         rdf:about="">
        <dc:format>image/svg+xml</dc:format>
        <dc:type
           rdf:resource="http://purl.org/dc/dcmitype/StillImage" />
      </cc:Work>
    </rdf:RDF>
  </metadata>
  <defs
     id="defs15" />
  <sodipodi:namedview
     pagecolor="#ffffff"
     bordercolor="#666666"
     borderopacity="1"
     objecttolerance="10"
     gridtolerance="10"
     guidetolerance="10"
     inkscape:pageopacity="0"
     inkscape:pageshadow="2"
     inkscape:window-width="1920"
     inkscape:window-height="1001"
     id="namedview13"
     showgrid="false"
     inkscape:zoom="1.6210938"
     inkscape:cx="256"
     inkscape:cy="256"
     inkscape:window-x="-9"
     inkscape:window-y="-9"
     inkscape:window-maximized="1"
     inkscape:current-layer="Layer_1_1_" />
  <g
     id="g847"
     style="fill:#017777;fill-opacity:1">
    <path
       d="m27 62c3.51904 0 6.43231-2.6134 6.92017-6h10.66577l-1.29297 1.29297 1.41406 1.41406 3-3c.19531-.19531.29297-.45117.29297-.70703s-.09766-.51172-.29297-.70703l-3-3-1.41406 1.41406 1.29297 1.29297h-10.66577c-.48786-3.3866-3.40113-6-6.92017-6-3.85938 0-7 3.14014-7 7s3.14062 7 7 7zm0-12c2.75684 0 5 2.24316 5 5s-2.24316 5-5 5-5-2.24316-5-5 2.24316-5 5-5z"
       id="path2"
       style="fill:#017777;fill-opacity:1" />
    <path
       d="m55 62c3.85938 0 7-3.14014 7-7s-3.14062-7-7-7-7 3.14014-7 7 3.14062 7 7 7zm0-12c2.75684 0 5 2.24316 5 5s-2.24316 5-5 5-5-2.24316-5-5 2.24316-5 5-5z"
       id="path4"
       style="fill:#017777;fill-opacity:1" />
    <path
       d="m23 25c-3.51904 0-6.43225 2.6134-6.9201 6h-1.5799c-6.89258 0-12.5 5.60742-12.5 12.5s5.60742 12.5 12.5 12.5h2.08594l-1.29297 1.29297 1.41406 1.41406 3-3c.19531-.19531.29297-.45117.29297-.70703s-.09766-.51172-.29297-.70703l-3-3-1.41406 1.41406 1.29297 1.29297h-2.08594c-5.79004 0-10.5-4.71045-10.5-10.5s4.70996-10.5 10.5-10.5h1.5799c.48785 3.3866 3.40106 6 6.9201 6 3.85938 0 7-3.14014 7-7s-3.14062-7-7-7zm0 12c-2.75684 0-5-2.24316-5-5s2.24316-5 5-5 5 2.24316 5 5-2.24316 5-5 5z"
       id="path6"
       style="fill:#017777;fill-opacity:1" />
    <path
       d="m26.70703 5.29297-1.41406 1.41406 1.29297 1.29297h-10.66577c-.48786-3.3866-3.40113-6-6.92017-6-3.85938 0-7 3.14014-7 7s3.14062 7 7 7c3.51904 0 6.43231-2.6134 6.92017-6h10.66577l-1.29297 1.29297 1.41406 1.41406 3-3c.19531-.19531.29297-.45117.29297-.70703s-.09766-.51172-.29297-.70703zm-17.70703 8.70703c-2.75684 0-5-2.24316-5-5s2.24316-5 5-5 5 2.24316 5 5-2.24316 5-5 5z"
       id="path8"
       style="fill:#017777;fill-opacity:1" />
    <path
       d="m62 20.5c0-6.89258-5.60742-12.5-12.5-12.5h-5.57983c-.48786-3.3866-3.40113-6-6.92017-6-3.85938 0-7 3.14014-7 7s3.14062 7 7 7c3.51904 0 6.43231-2.6134 6.92017-6h5.57983c5.79004 0 10.5 4.71045 10.5 10.5s-4.70996 10.5-10.5 10.5h-16.08594l1.29297-1.29297-1.41406-1.41406-3 3c-.19531.19531-.29297.45117-.29297.70703s.09766.51172.29297.70703l3 3 1.41406-1.41406-1.29297-1.29297h16.08594c6.89258 0 12.5-5.60742 12.5-12.5zm-25-6.5c-2.75684 0-5-2.24316-5-5s2.24316-5 5-5 5 2.24316 5 5-2.24316 5-5 5z"
       id="path10"
       style="fill:#017777;fill-opacity:1" />
  </g>
</svg>
